<svg data-v-423bf9ae="" xmlns="http://www.w3.org/2000/svg" viewBox="0 0 220.6005697538188 163" class="iconAbove"><!----><!----><defs data-v-423bf9ae=""><linearGradient data-v-423bf9ae="" gradientTransform="rotate(25)" id="95cbc6e3-4c41-411e-8415-840fb200ed85" x1="0%" y1="0%" x2="100%" y2="0%"><stop data-v-423bf9ae="" offset="0%" style="stop-color: rgb(185, 185, 185); stop-opacity: 1;"></stop><stop data-v-423bf9ae="" offset="100%" style="stop-color: rgb(222, 124, 38); stop-opacity: 1;"></stop></linearGradient></defs><g data-v-423bf9ae="" id="44aa5542-d83c-4f0f-874f-01c7670c753f" fill="url(#95cbc6e3-4c41-411e-8415-840fb200ed85)" transform="matrix(4.189944267272949,0,0,4.189944267272949,-1.4664827585220337,103.71228790283203)"><path d="M3.75 10.26L3.75 9.80L2.74 9.28L2.74 2.84L3.75 2.32L3.75 1.86L0.35 1.86L0.35 2.32L1.36 2.84L1.36 9.28L0.35 9.80L0.35 10.26ZM11.75 10.26L11.75 9.80L10.72 9.28L10.72 6.02C10.72 4.47 9.66 3.57 7.92 3.57C7.07 3.57 6.03 3.74 5.18 3.99L4.96 4.05L5.26 5.08L5.26 10.26L6.58 10.26L6.58 4.89C7 4.77 7.48 4.70 7.92 4.70C8.90 4.70 9.41 5.15 9.41 6.02L9.41 10.26ZM16.20-0.17C14.53-0.17 13.57 0.71 13.57 2.17L13.57 3.72L12.17 3.72L12.17 4.86L13.57 4.86L13.57 10.26L14.88 10.26L14.88 4.86L17.11 4.86L17.11 3.72L14.88 3.72L14.88 2.17C14.88 1.41 15.25 1.01 16.11 0.98L16.65 2.00L17.11 2.00L17.11-0.01C16.84-0.11 16.48-0.17 16.20-0.17ZM23.07 5.80L23.07 3.86C22.54 3.70 21.83 3.57 21.29 3.57C20.44 3.57 19.40 3.74 18.55 3.99L18.33 4.05L18.63 5.08L18.63 10.26L19.95 10.26L19.95 4.89C20.37 4.77 20.85 4.70 21.29 4.70C21.53 4.70 21.81 4.73 22.09 4.79L22.61 5.80ZM30.60 10.26L30.60 9.14C30.41 9.21 30.18 9.28 29.95 9.28C29.62 9.28 29.48 9.13 29.48 8.81L29.48 6.02C29.48 4.44 28.36 3.57 26.56 3.57C25.97 3.57 25.24 3.70 24.58 3.88L24.58 5.80L25.03 5.80L25.55 4.82C25.90 4.75 26.26 4.70 26.56 4.70C27.64 4.70 28.17 5.17 28.17 6.02L28.17 6.40L26.40 6.40C24.77 6.40 23.91 7.24 23.91 8.34C23.91 9.53 24.88 10.43 26.63 10.43C27.30 10.43 27.96 10.25 28.49 9.98C28.73 10.26 29.15 10.43 29.61 10.43C29.96 10.43 30.34 10.35 30.60 10.26ZM28.17 9.02C27.71 9.24 27.16 9.38 26.63 9.38C25.70 9.38 25.24 8.99 25.24 8.34C25.24 7.78 25.59 7.43 26.40 7.43L28.17 7.43ZM37.87 7.92C37.87 7.14 37.41 6.40 36.72 6.02C37.41 5.63 37.83 4.93 37.83 4.17C37.83 2.77 36.79 1.86 35.15 1.86L31.64 1.86L31.95 2.91L31.95 10.26L35.15 10.26C36.90 10.26 37.87 9.30 37.87 7.92ZM36.46 4.23C36.46 5.03 35.98 5.47 35.15 5.47L33.26 5.47L33.26 2.98L35.15 2.98C35.98 2.98 36.46 3.43 36.46 4.23ZM36.50 7.87C36.50 8.69 35.99 9.14 35.15 9.14L33.26 9.14L33.26 6.59L35.15 6.59C35.99 6.59 36.50 7.04 36.50 7.87ZM46.21 10.26L46.21 9.14C46.02 9.21 45.79 9.28 45.56 9.28C45.23 9.28 45.09 9.13 45.09 8.81L45.09 3.72L43.78 3.72L43.78 9.02C43.36 9.18 42.94 9.28 42.43 9.28C41.45 9.28 40.95 8.83 40.95 7.98L40.95 3.72L39.63 3.72L39.63 7.98C39.63 9.52 40.70 10.43 42.43 10.43C43.06 10.43 43.64 10.28 44.16 10.04C44.41 10.29 44.80 10.43 45.22 10.43C45.57 10.43 45.95 10.35 46.21 10.26ZM53.00 4.05L52.78 3.99C51.94 3.75 50.76 3.57 49.84 3.57C48.10 3.57 47.00 4.61 47.00 5.96C47.00 7.15 47.82 8.11 49.20 8.32C49.04 8.41 48.92 8.62 48.92 8.86C48.92 9.10 49.04 9.31 49.20 9.41C47.82 9.62 47.00 10.57 47.00 11.76C47.00 13.12 48.10 14.15 49.84 14.15C51.59 14.15 52.70 13.12 52.70 11.76C52.70 10.70 52.02 9.83 50.90 9.49C50.41 9.35 50.23 9.16 50.23 8.86C50.23 8.57 50.41 8.37 50.90 8.23C52.01 7.91 52.70 7.03 52.70 5.96L52.70 5.08ZM51.38 5.96C51.38 6.69 50.81 7.22 49.84 7.22C48.89 7.22 48.31 6.71 48.31 5.96C48.31 5.24 48.89 4.70 49.84 4.70C50.40 4.70 50.99 4.79 51.38 4.87ZM51.38 11.76C51.38 12.49 50.81 13.02 49.84 13.02C48.89 13.02 48.31 12.49 48.31 11.76C48.31 11.03 48.89 10.50 49.84 10.50C50.81 10.50 51.37 11.02 51.38 11.76Z"></path></g><defs data-v-423bf9ae=""><linearGradient data-v-423bf9ae="" gradientTransform="rotate(25)" id="41bbe0ec-0057-4a7f-843b-645bba65719c" x1="0%" y1="0%" x2="100%" y2="0%"><stop data-v-423bf9ae="" offset="0%" style="stop-color: rgb(222, 124, 38); stop-opacity: 1;"></stop><stop data-v-423bf9ae="" offset="100%" style="stop-color: rgb(185, 185, 185); stop-opacity: 1;"></stop></linearGradient></defs><g data-v-423bf9ae="" id="bd51fb1b-1373-4d3f-b8dc-2200ed4f3589" transform="matrix(1.0833452939987183,0,0,1.0833452939987183,58.49159240722656,-6.5641632080078125)" stroke="none" fill="url(#41bbe0ec-0057-4a7f-843b-645bba65719c)"><path d="M48.095 89.845c17.655 0 32.02-14.364 32.02-32.021 0-11.101-5.618-21.248-15.028-27.144a31.741 31.741 0 0 0-10.646-4.249 32.222 32.222 0 0 0-1.859-.323 32.213 32.213 0 0 0-4.486-.314 31.861 31.861 0 0 0-16.991 4.885c-9.411 5.897-15.029 16.044-15.029 27.145-.002 17.657 14.362 32.021 32.019 32.021zM28.131 52.013l6.146.133a15.86 15.86 0 0 1 4.507-4.998l-1.221-5.863 4.399-1.844 3.741 4.901a15.677 15.677 0 0 1 4.593-.003c.442.066.897.157 1.382.276l3.834-4.621.509.207c1.2.487 2.361 1.088 3.45 1.786l.454.291-1.474 5.876a15.743 15.743 0 0 1 3.57 4.563l6.135.121 1.095 4.758-5.48 2.495a15.463 15.463 0 0 1-.154 2.186 15.852 15.852 0 0 1-1.146 3.996l3.743 4.89-2.828 3.661-5.316-2.704a15.863 15.863 0 0 1-6.403 3.197l-1.475 5.922-4.364.001-1.206-5.856a15.726 15.726 0 0 1-6.892-3.401l-5.451 2.492-2.582-3.437 3.864-4.636a15.744 15.744 0 0 1-1.324-7.382l-5.327-2.693 1.221-4.314z"></path><path d="M32.93 27.939c.381-.194.763-.384 1.15-.563.296-.137.595-.266.896-.394a31.495 31.495 0 0 1 3.308-1.208c.308-.094.614-.187.924-.272.419-.115.841-.217 1.265-.316.304-.071.607-.145.913-.207.444-.09.894-.165 1.342-.237.29-.047.578-.1.87-.14.498-.067.999-.113 1.501-.158.246-.022.491-.054.737-.07.751-.05 1.504-.079 2.26-.079s1.509.029 2.259.079c.248.017.494.049.741.071.501.045 1.001.091 1.497.158.293.04.583.093.874.14.447.072.895.146 1.338.236.307.063.61.136.916.208.422.099.844.201 1.262.315.31.085.617.178.925.272a33.139 33.139 0 0 1 2.128.729c.398.152.792.313 1.184.48.298.126.594.254.888.39.392.181.778.374 1.163.57.283.144.566.286.846.438.099.054.201.101.3.156-1.875-7.329-8.618-12.673-16.319-12.673s-14.445 5.344-16.32 12.673c.097-.054.198-.1.295-.153.281-.154.57-.299.857-.445zM19.557 75.383l-9.63 9.63 1.06 1.061 9.404-9.404.527-.527.115-.115-.528-.528-.532-.533zM15.32 58.571v-1.5H5.594v1.5h8.999zM22.701 37.01l.575-.575.486-.485-.027-.026-.542-.543-7.394-7.395-1.061 1.061 7.463 7.463zM76.215 74.967l-.529.53-.532.531.117.116.527.527 9.402 9.403 1.061-1.061-9.629-9.629zM80.867 58.571H90.594v-1.5h-9.727zM73.486 37.01l.5-.5 7.463-7.463-1.06-1.061-7.394 7.394-.543.543-.026.027.495.495zM40.27 16.94l1.351-.65-.289-.601-4.295-8.92-1.351.65 4.276 8.884zM55.792 16.94l.021-.044.312-.648 4.251-8.829-1.352-.65-4.272 8.875-.312.646.164.078zM33.771 58.648a14.233 14.233 0 0 0 1.347 7.542l.211.436-3.719 4.461 1.145 1.522 5.246-2.4.367.335a14.224 14.224 0 0 0 7.025 3.465l.497.091 1.161 5.641 1.97-.001 1.416-5.69.461-.097a14.339 14.339 0 0 0 6.569-3.289l.382-.338 5.109 2.596 1.363-1.765-3.592-4.692.194-.412a14.347 14.347 0 0 0 1.209-3.995c.11-.761.154-1.557.133-2.43l-.012-.496 5.262-2.395-.558-2.424-5.879-.115-.2-.416a14.3 14.3 0 0 0-3.747-4.787l-.361-.302 1.437-5.728a19.72 19.72 0 0 0-2.246-1.163l-3.74 4.508-.466-.127a14.335 14.335 0 0 0-1.679-.362 14.227 14.227 0 0 0-4.565.071l-.449.079-3.587-4.7-2.19.918 1.172 5.632-.419.281a14.343 14.343 0 0 0-4.66 5.155l-.217.407-5.902-.127-.568 2.007 5.128 2.594-.048.51z"></path></g><!----></svg>