<svg data-v-423bf9ae="" xmlns="http://www.w3.org/2000/svg" viewBox="0 0 220.6005697538188 60" class="font"><!----><!----><!----><g data-v-423bf9ae="" id="bb057ce2-409e-4bcd-ae61-ec9585024fee" fill="black" transform="matrix(4.189944267272949,0,0,4.189944267272949,-1.4664827585220337,0.7122905254364014)"><path d="M3.75 10.26L3.75 9.80L2.74 9.28L2.74 2.84L3.75 2.32L3.75 1.86L0.35 1.86L0.35 2.32L1.36 2.84L1.36 9.28L0.35 9.80L0.35 10.26ZM11.75 10.26L11.75 9.80L10.72 9.28L10.72 6.02C10.72 4.47 9.66 3.57 7.92 3.57C7.07 3.57 6.03 3.74 5.18 3.99L4.96 4.05L5.26 5.08L5.26 10.26L6.58 10.26L6.58 4.89C7 4.77 7.48 4.70 7.92 4.70C8.90 4.70 9.41 5.15 9.41 6.02L9.41 10.26ZM16.20-0.17C14.53-0.17 13.57 0.71 13.57 2.17L13.57 3.72L12.17 3.72L12.17 4.86L13.57 4.86L13.57 10.26L14.88 10.26L14.88 4.86L17.11 4.86L17.11 3.72L14.88 3.72L14.88 2.17C14.88 1.41 15.25 1.01 16.11 0.98L16.65 2.00L17.11 2.00L17.11-0.01C16.84-0.11 16.48-0.17 16.20-0.17ZM23.07 5.80L23.07 3.86C22.54 3.70 21.83 3.57 21.29 3.57C20.44 3.57 19.40 3.74 18.55 3.99L18.33 4.05L18.63 5.08L18.63 10.26L19.95 10.26L19.95 4.89C20.37 4.77 20.85 4.70 21.29 4.70C21.53 4.70 21.81 4.73 22.09 4.79L22.61 5.80ZM30.60 10.26L30.60 9.14C30.41 9.21 30.18 9.28 29.95 9.28C29.62 9.28 29.48 9.13 29.48 8.81L29.48 6.02C29.48 4.44 28.36 3.57 26.56 3.57C25.97 3.57 25.24 3.70 24.58 3.88L24.58 5.80L25.03 5.80L25.55 4.82C25.90 4.75 26.26 4.70 26.56 4.70C27.64 4.70 28.17 5.17 28.17 6.02L28.17 6.40L26.40 6.40C24.77 6.40 23.91 7.24 23.91 8.34C23.91 9.53 24.88 10.43 26.63 10.43C27.30 10.43 27.96 10.25 28.49 9.98C28.73 10.26 29.15 10.43 29.61 10.43C29.96 10.43 30.34 10.35 30.60 10.26ZM28.17 9.02C27.71 9.24 27.16 9.38 26.63 9.38C25.70 9.38 25.24 8.99 25.24 8.34C25.24 7.78 25.59 7.43 26.40 7.43L28.17 7.43ZM37.87 7.92C37.87 7.14 37.41 6.40 36.72 6.02C37.41 5.63 37.83 4.93 37.83 4.17C37.83 2.77 36.79 1.86 35.15 1.86L31.64 1.86L31.95 2.91L31.95 10.26L35.15 10.26C36.90 10.26 37.87 9.30 37.87 7.92ZM36.46 4.23C36.46 5.03 35.98 5.47 35.15 5.47L33.26 5.47L33.26 2.98L35.15 2.98C35.98 2.98 36.46 3.43 36.46 4.23ZM36.50 7.87C36.50 8.69 35.99 9.14 35.15 9.14L33.26 9.14L33.26 6.59L35.15 6.59C35.99 6.59 36.50 7.04 36.50 7.87ZM46.21 10.26L46.21 9.14C46.02 9.21 45.79 9.28 45.56 9.28C45.23 9.28 45.09 9.13 45.09 8.81L45.09 3.72L43.78 3.72L43.78 9.02C43.36 9.18 42.94 9.28 42.43 9.28C41.45 9.28 40.95 8.83 40.95 7.98L40.95 3.72L39.63 3.72L39.63 7.98C39.63 9.52 40.70 10.43 42.43 10.43C43.06 10.43 43.64 10.28 44.16 10.04C44.41 10.29 44.80 10.43 45.22 10.43C45.57 10.43 45.95 10.35 46.21 10.26ZM53.00 4.05L52.78 3.99C51.94 3.75 50.76 3.57 49.84 3.57C48.10 3.57 47.00 4.61 47.00 5.96C47.00 7.15 47.82 8.11 49.20 8.32C49.04 8.41 48.92 8.62 48.92 8.86C48.92 9.10 49.04 9.31 49.20 9.41C47.82 9.62 47.00 10.57 47.00 11.76C47.00 13.12 48.10 14.15 49.84 14.15C51.59 14.15 52.70 13.12 52.70 11.76C52.70 10.70 52.02 9.83 50.90 9.49C50.41 9.35 50.23 9.16 50.23 8.86C50.23 8.57 50.41 8.37 50.90 8.23C52.01 7.91 52.70 7.03 52.70 5.96L52.70 5.08ZM51.38 5.96C51.38 6.69 50.81 7.22 49.84 7.22C48.89 7.22 48.31 6.71 48.31 5.96C48.31 5.24 48.89 4.70 49.84 4.70C50.40 4.70 50.99 4.79 51.38 4.87ZM51.38 11.76C51.38 12.49 50.81 13.02 49.84 13.02C48.89 13.02 48.31 12.49 48.31 11.76C48.31 11.03 48.89 10.50 49.84 10.50C50.81 10.50 51.37 11.02 51.38 11.76Z"></path></g><!----><!----></svg>